<?xml version="1.0" standalone="no"?>
<!DOCTYPE svg PUBLIC "-//W3C//DTD SVG 20010904//EN"
 "http://www.w3.org/TR/2001/REC-SVG-20010904/DTD/svg10.dtd">
<svg version="1.0" xmlns="http://www.w3.org/2000/svg"
 width="400.000000pt" height="400.000000pt" viewBox="0 0 400.000000 400.000000"
 preserveAspectRatio="xMidYMid meet">
<metadata>
Created by potrace 1.14, written by Peter Selinger 2001-2017
</metadata>
<g transform="translate(0.000000,400.000000) scale(0.100000,-0.100000)"
fill="#000000" stroke="none">
<path d="M0 2000 l0 -2000 2000 0 2000 0 0 2000 0 2000 -2000 0 -2000 0 0
-2000z m2223 1625 c221 -46 419 -151 579 -309 239 -235 361 -634 362 -1181 0
-282 -26 -427 -117 -646 -110 -265 -438 -753 -629 -934 -154 -146 -277 -208
-413 -208 -99 1 -169 25 -280 98 -145 96 -249 213 -453 507 -242 351 -356 590
-408 858 -25 130 -26 508 -1 690 71 518 256 826 608 1012 234 124 504 164 752
113z"/>
<path d="M1013 1869 c3 -80 11 -134 27 -179 76 -228 259 -384 545 -464 84 -24
245 -50 254 -41 2 3 -23 51 -55 109 -158 284 -386 511 -629 627 -55 26 -111
50 -124 54 l-24 7 6 -113z"/>
<path d="M2925 1956 c-264 -102 -543 -368 -709 -677 -25 -47 -46 -89 -46 -93
0 -16 228 27 332 63 194 67 355 199 428 353 22 46 47 115 55 153 15 73 20 225
8 225 -5 -1 -35 -11 -68 -24z"/>
</g>
</svg>
